<svg width="32" height="33" viewBox="0 0 32 33" fill="none" xmlns="http://www.w3.org/2000/svg">
<path d="M23.2738 21.8181C22.4107 21.8181 21.5671 21.5622 20.8495 21.0827C20.1319 20.6032 19.5726 19.9217 19.2423 19.1243C18.912 18.327 18.8256 17.4496 18.994 16.6032C19.1624 15.7567 19.578 14.9792 20.1882 14.3689C20.7985 13.7587 21.576 13.343 22.4225 13.1747C23.269 13.0063 24.1463 13.0927 24.9437 13.423C25.741 13.7533 26.4225 14.3125 26.902 15.0301C27.3815 15.7477 27.6374 16.5914 27.6374 17.4545C27.6374 18.6118 27.1777 19.7217 26.3594 20.54C25.541 21.3583 24.4311 21.8181 23.2738 21.8181ZM23.2738 15.9999C22.9861 15.9999 22.7049 16.0852 22.4657 16.245C22.2265 16.4049 22.0401 16.632 21.93 16.8978C21.8199 17.1636 21.7911 17.4561 21.8472 17.7382C21.9033 18.0204 22.0418 18.2795 22.2453 18.483C22.4487 18.6864 22.7079 18.8249 22.99 18.881C23.2722 18.9372 23.5646 18.9084 23.8304 18.7983C24.0962 18.6882 24.3234 18.5018 24.4832 18.2626C24.643 18.0234 24.7283 17.7421 24.7283 17.4545C24.7283 17.0687 24.5751 16.6987 24.3023 16.426C24.0295 16.1532 23.6596 15.9999 23.2738 15.9999Z" fill="#18B36A"/>
<path d="M30.5455 31.9997H27.6364V27.6361C27.6364 27.2503 27.4831 26.8804 27.2103 26.6076C26.9376 26.3348 26.5676 26.1816 26.1818 26.1816H20.3636C19.9779 26.1816 19.6079 26.3348 19.3351 26.6076C19.0623 26.8804 18.9091 27.2503 18.9091 27.6361V31.9997H16V27.6361C16 26.4788 16.4597 25.3689 17.2781 24.5506C18.0964 23.7322 19.2063 23.2725 20.3636 23.2725H26.1818C27.3391 23.2725 28.449 23.7322 29.2674 24.5506C30.0857 25.3689 30.5455 26.4788 30.5455 27.6361V31.9997Z" fill="#18B36A"/>
<path d="M14.5455 27.637H2.90909C2.13755 27.637 1.39761 27.3305 0.852051 26.7849C0.30649 26.2394 0 25.4994 0 24.7279V7.27335C0 6.50181 0.30649 5.76187 0.852051 5.21631C1.39761 4.67075 2.13755 4.36426 2.90909 4.36426H29.0909C29.8624 4.36426 30.6024 4.67075 31.1479 5.21631C31.6935 5.76187 32 6.50181 32 7.27335V21.8188H29.0909V7.27335H2.90909V24.7279H14.5455V27.637Z" fill="#07133B"/>
<path d="M21.8278 5.81818H18.9187V2.90909H13.1005V5.81818H10.1914V0H21.8278V5.81818Z" fill="#07133B"/>
<path d="M7.28409 2.90918H4.375V5.81827H7.28409V2.90918Z" fill="#07133B"/>
<path d="M27.6474 2.90918H24.7383V5.81827H27.6474V2.90918Z" fill="#07133B"/>
<path d="M7.28409 14.5459H4.375V21.8186H7.28409V14.5459Z" fill="#07133B"/>
<path d="M11.6474 17.4541H8.73828V21.8177H11.6474V17.4541Z" fill="#07133B"/>
<path d="M16.0146 10.1816H13.1055V21.818H16.0146V10.1816Z" fill="#07133B"/>
</svg>
