<svg width="56" height="56" viewBox="0 0 56 56" fill="none" xmlns="http://www.w3.org/2000/svg">
<path d="M56 0H0V56H56V0Z" fill="#F4F4F4"/>
<path d="M40.939 19.3818C40.7751 19.4828 37.1705 21.5814 37.2114 25.9474C37.2568 31.1696 41.7894 32.9086 41.8414 32.9284C41.8008 33.0527 41.1168 35.4052 39.4522 37.8348C38.0136 39.9397 36.5235 42.0326 34.1715 42.0763C31.8608 42.1186 31.1161 40.7053 28.4764 40.7053C25.8351 40.7053 25.0083 42.0326 22.8232 42.1186C20.5531 42.2045 18.8247 39.8457 17.3756 37.7524C14.4131 33.4685 12.148 25.6458 15.1895 20.3666C16.6994 17.7448 19.3982 16.0838 22.3265 16.0409C24.5566 15.9988 26.6598 17.5401 28.0239 17.5401C29.3686 17.5401 31.7785 15.7433 34.6191 15.9535C35.7324 16.036 38.8929 16.3683 40.939 19.3818ZM32.8663 13.1255C34.0728 11.6675 34.8845 9.63688 34.661 7.61719C32.9246 7.68605 30.8246 8.77379 29.5791 10.2309C28.4639 11.5217 27.4844 13.589 27.7503 15.5675C29.6857 15.717 31.6609 14.5845 32.8663 13.1255Z" fill="#1D1D1F"/>
</svg>
