<svg width="24" height="24" viewBox="0 0 24 24" fill="none" xmlns="http://www.w3.org/2000/svg">
<path d="M15.5018 18C15.3693 17.9995 15.2425 17.9505 15.1491 17.8638L9.14548 12.3245C9.0523 12.238 9 12.121 9 11.999C9 11.8771 9.0523 11.7601 9.14548 11.6736L15.1491 6.13423C15.2428 6.04826 15.3696 6 15.5018 6C15.634 6 15.7608 6.04826 15.8545 6.13423C15.9477 6.22072 16 6.33772 16 6.45967C16 6.58162 15.9477 6.69862 15.8545 6.78511L10.2061 11.999L15.8545 17.2129C15.9241 17.2775 15.9714 17.3596 15.9905 17.4489C16.0096 17.5382 15.9997 17.6307 15.962 17.7148C15.9243 17.7989 15.8605 17.8708 15.7787 17.9216C15.6968 17.9723 15.6004 17.9996 15.5018 18Z" fill="#333333"/>
</svg>
