<svg width="17" height="20" viewBox="0 0 17 20" fill="none" xmlns="http://www.w3.org/2000/svg">
<path d="M5.92766 17.9418C6.13223 19.1348 7.15883 20.0005 8.36868 20.0005C9.57883 20.0005 10.6057 19.1348 10.8103 17.9418L10.8228 17.8691H5.91516L5.92766 17.9418Z" fill="#666666"/>
<path d="M16.72 14.5305C16.5197 14.3302 16.3157 14.1608 16.1183 13.9968C15.2882 13.3075 14.5711 12.7121 14.5711 10.2403V8.27957C14.5711 5.39645 12.5454 2.8666 9.74262 2.2323C9.85496 2.01199 9.91191 1.78043 9.91191 1.54266C9.91191 0.692109 9.21976 0 8.36891 0C7.51828 0 6.82625 0.692109 6.82625 1.54266C6.82625 1.78059 6.88312 2.01211 6.99555 2.2323C4.19262 2.8666 2.16703 5.39645 2.16703 8.27957V10.2403C2.16703 12.7121 1.45 13.3075 0.619844 13.9968C0.4225 14.1607 0.218437 14.3302 0.0182031 14.5305L0 14.5487V16.4939H16.7381V14.5487L16.72 14.5305Z" fill="#666666"/>
</svg>
