<svg width="16" height="16" viewBox="0 0 16 16" fill="none" xmlns="http://www.w3.org/2000/svg">
<path d="M13.96 7.33333C13.9868 7.55454 14.0002 7.77717 14 8C14 9.18669 13.6481 10.3467 12.9888 11.3334C12.3295 12.3201 11.3925 13.0892 10.2961 13.5433C9.19975 13.9974 7.99335 14.1162 6.82946 13.8847C5.66558 13.6532 4.59648 13.0818 3.75736 12.2426C2.91825 11.4035 2.3468 10.3344 2.11529 9.17054C1.88378 8.00666 2.0026 6.80026 2.45673 5.7039C2.91085 4.60754 3.67989 3.67047 4.66658 3.01118C5.65328 2.35189 6.81331 2 8 2C8.92905 2.00867 9.84284 2.23712 10.6667 2.66667" stroke="#0066FF" stroke-width="1.1" stroke-linecap="round" stroke-linejoin="round"/>
<path d="M14.0007 3.33203L8.00065 9.33203L5.33398 6.66536" stroke="#0066FF" stroke-width="1.1" stroke-linecap="round" stroke-linejoin="round"/>
</svg>
