<svg width="24" height="24" viewBox="0 0 24 24" fill="none" xmlns="http://www.w3.org/2000/svg">
<g clip-path="url(#clip0_163_189)">
<path d="M12 0C5.373 0 0 5.37225 0 12C0 18.6278 5.37225 24 12 24C18.6278 24 24 18.6278 24 12C24 5.37225 18.6278 0 12 0ZM12 22.524C6.21 22.524 1.5 17.79 1.5 12C1.5 6.21 6.21 1.5 12 1.5C17.79 1.5 22.5 6.21 22.5 12C22.5 17.79 17.79 22.524 12 22.524ZM16.2428 7.758C15.9502 7.4655 15.4755 7.4655 15.1823 7.758L12.0007 10.9395L8.81925 7.758C8.52675 7.4655 8.05125 7.4655 7.758 7.758C7.46475 8.0505 7.4655 8.526 7.758 8.8185L10.9395 12L7.758 15.1815C7.4655 15.474 7.4655 15.9495 7.758 16.242C8.0505 16.5345 8.526 16.5345 8.81925 16.242L12.0007 13.0605L15.1823 16.242C15.4747 16.5345 15.9495 16.5345 16.2428 16.242C16.536 15.9495 16.5352 15.474 16.2428 15.1815L13.0613 12L16.2428 8.8185C16.536 8.52525 16.536 8.0505 16.2428 7.758Z" fill="green"/>
</g>
<defs>
<clipPath id="clip0_163_189">
<rect width="24" height="24" fill="white"/>
</clipPath>
</defs>
</svg>
