<svg width="20" height="20" viewBox="0 0 20 20" fill="none" xmlns="http://www.w3.org/2000/svg">
<path fill-rule="evenodd" clip-rule="evenodd" d="M15 3.75H1.25C0.559062 3.75 0 4.30906 0 5V13.75C0 14.4409 0.559062 15 1.25 15H3.75V18.75C3.75 19.2553 4.05406 19.7119 4.52156 19.9047C4.67656 19.9694 4.83875 20 5 20C5.32469 20 5.64437 19.8731 5.88375 19.6337L10.5175 15H15C15.6909 15 16.25 14.4409 16.25 13.75V5C16.25 4.30906 15.6909 3.75 15 3.75Z" fill="#666666" fill-opacity="0.5"/>
<path fill-rule="evenodd" clip-rule="evenodd" d="M18.75 0H5C4.30906 0 3.75 0.559062 3.75 1.25V2.5H16.25C16.9409 2.5 17.5 3.05906 17.5 3.75V11.25H18.75C19.4409 11.25 20 10.6909 20 10V1.25C20 0.559062 19.4409 0 18.75 0Z" fill="#666666" fill-opacity="0.5"/>
</svg>
