<svg width="64" height="64" viewBox="0 0 64 64" fill="none" xmlns="http://www.w3.org/2000/svg">
<circle cx="32" cy="32" r="32" fill="#E6F5EE"/>
<path d="M39.8409 44.1577H36.9255V39.779C36.9255 39.3919 36.7719 39.0207 36.4985 38.747C36.2251 38.4732 35.8544 38.3195 35.4677 38.3195H29.6368C29.2502 38.3195 28.8795 38.4732 28.6061 38.747C28.3327 39.0207 28.1791 39.3919 28.1791 39.779V44.1577H25.2637V39.779C25.2637 38.6177 25.7244 37.504 26.5446 36.6828C27.3647 35.8617 28.477 35.4004 29.6368 35.4004H35.4677C36.6276 35.4004 37.7399 35.8617 38.56 36.6828C39.3802 37.504 39.8409 38.6177 39.8409 39.779V44.1577Z" fill="#18B36A"/>
<path d="M36.5598 50H28.4402L27.4927 46.1906C27.1137 46.0446 26.7347 45.8841 26.3557 45.7089L23.0029 47.7377L17.2595 42.0017L19.2857 38.6301C19.1108 38.2506 18.9504 37.8711 18.8192 37.4917L15 36.543V28.457L18.8047 27.5083C18.9505 27.1289 19.1108 26.7494 19.2857 26.3699L17.2595 23.0129L23.0029 17.2623L26.3557 19.2911C26.7347 19.1159 27.1137 18.9554 27.4927 18.8094L28.4548 15H36.5598L37.5073 18.8094C37.8863 18.9554 38.2653 19.1159 38.6443 19.2911L42.0117 17.2623L47.7405 22.9983L45.7289 26.3699C45.8892 26.7494 46.0495 27.1289 46.1953 27.5083L50 28.4717V36.5867L46.1953 37.5354C46.0495 37.9149 45.8892 38.2944 45.7143 38.6739L47.7405 42.0454L42.0117 47.7815L38.6443 45.7527C38.2653 45.9279 37.8863 46.0884 37.5073 46.2343L36.5598 50ZM30.7289 47.0809H34.2711L35.0729 43.8991L35.86 43.651C36.6082 43.4302 37.3313 43.1318 38.0175 42.7606L38.7464 42.3665L41.5598 44.0596L44.067 41.5492L42.3907 38.6739L42.7842 37.9441C43.1524 37.2609 43.4503 36.542 43.6735 35.7986L43.9213 34.9958L47.0991 34.1931V30.6464L43.9213 29.8436L43.6735 29.0555C43.4546 28.308 43.1616 27.5843 42.7988 26.8953L42.4053 26.1655L44.0816 23.3486L41.5744 20.8382L38.7901 22.6188L38.0612 22.2248C37.3777 21.8587 36.66 21.5605 35.9184 21.3344L35.1166 21.0863L34.3295 17.9045H30.7289L29.9271 21.0863L29.14 21.3344C28.3929 21.5582 27.6701 21.8565 26.9825 22.2248L26.2536 22.6188L23.4402 20.8966L20.9184 23.4216L22.6093 26.2239L22.2158 26.9537C21.8425 27.6396 21.5444 28.3639 21.3265 29.1139L21.0787 29.902L17.9009 30.7048V34.2952L21.0933 35.098L21.3265 35.9008C21.5497 36.6442 21.8476 37.3631 22.2158 38.0463L22.6093 38.7761L20.9767 41.593L23.484 44.1034L26.2974 42.4103L27.0262 42.8044C27.7124 43.1756 28.4355 43.474 29.1837 43.6947L29.9709 43.9428L30.7289 47.0809Z" fill="#07133B"/>
<path d="M32.5529 33.9428C31.6879 33.9428 30.8424 33.686 30.1232 33.2049C29.4041 32.7237 28.8436 32.0399 28.5126 31.2398C28.1816 30.4397 28.095 29.5593 28.2637 28.71C28.4325 27.8606 28.849 27.0804 29.4606 26.468C30.0722 25.8556 30.8514 25.4386 31.6997 25.2697C32.548 25.1007 33.4273 25.1874 34.2264 25.5189C35.0255 25.8503 35.7085 26.4115 36.189 27.1315C36.6696 27.8516 36.926 28.6982 36.926 29.5642C36.926 30.7255 36.4653 31.8392 35.6451 32.6603C34.825 33.4815 33.7127 33.9428 32.5529 33.9428ZM32.5529 28.1046C32.2646 28.1046 31.9827 28.1902 31.743 28.3506C31.5033 28.511 31.3164 28.7389 31.2061 29.0056C31.0958 29.2723 31.0669 29.5658 31.1232 29.8489C31.1794 30.132 31.3182 30.3921 31.5221 30.5962C31.726 30.8003 31.9857 30.9394 32.2685 30.9957C32.5512 31.052 32.8444 31.0231 33.1107 30.9126C33.3771 30.8021 33.6048 30.6151 33.7649 30.3751C33.9251 30.1351 34.0106 29.8529 34.0106 29.5642C34.0106 29.1771 33.857 28.8058 33.5836 28.5321C33.3102 28.2584 32.9395 28.1046 32.5529 28.1046Z" fill="#18B36A"/>
</svg>
