<svg width="24" height="24" viewBox="0 0 24 24" fill="none" xmlns="http://www.w3.org/2000/svg">
<path d="M16.2 5.6V6.4H14.6V5.6H9.79995V6.4H8.19995V5.6C8.19995 5.17565 8.36852 4.76869 8.66858 4.46863C8.96864 4.16857 9.3756 4 9.79995 4H14.6C15.0243 4 15.4313 4.16857 15.7313 4.46863C16.0314 4.76869 16.2 5.17565 16.2 5.6Z" fill="#666666"/>
<path d="M18.6 7.2002H5.8C5.58783 7.2002 5.38434 7.28448 5.23431 7.43451C5.08429 7.58454 5 7.78802 5 8.0002C5 8.21237 5.08429 8.41585 5.23431 8.56588C5.38434 8.71591 5.58783 8.8002 5.8 8.8002H6.6V18.4002C6.6 18.8245 6.76857 19.2315 7.06863 19.5316C7.36869 19.8316 7.77565 20.0002 8.2 20.0002H16.2C16.6243 20.0002 17.0313 19.8316 17.3314 19.5316C17.6314 19.2315 17.8 18.8245 17.8 18.4002V8.8002H18.6C18.8122 8.8002 19.0157 8.71591 19.1657 8.56588C19.3157 8.41585 19.4 8.21237 19.4 8.0002C19.4 7.78802 19.3157 7.58454 19.1657 7.43451C19.0157 7.28448 18.8122 7.2002 18.6 7.2002ZM11.4 16.0002C11.4 16.2124 11.3157 16.4159 11.1657 16.5659C11.0157 16.7159 10.8122 16.8002 10.6 16.8002C10.3878 16.8002 10.1843 16.7159 10.0343 16.5659C9.88429 16.4159 9.8 16.2124 9.8 16.0002V11.2002C9.8 10.988 9.88429 10.7845 10.0343 10.6345C10.1843 10.4845 10.3878 10.4002 10.6 10.4002C10.8122 10.4002 11.0157 10.4845 11.1657 10.6345C11.3157 10.7845 11.4 10.988 11.4 11.2002V16.0002ZM14.6 16.0002C14.6 16.2124 14.5157 16.4159 14.3657 16.5659C14.2157 16.7159 14.0122 16.8002 13.8 16.8002C13.5878 16.8002 13.3843 16.7159 13.2343 16.5659C13.0843 16.4159 13 16.2124 13 16.0002V11.2002C13 10.988 13.0843 10.7845 13.2343 10.6345C13.3843 10.4845 13.5878 10.4002 13.8 10.4002C14.0122 10.4002 14.2157 10.4845 14.3657 10.6345C14.5157 10.7845 14.6 10.988 14.6 11.2002V16.0002Z" fill="#666666"/>
</svg>
