<svg width="40" height="40" viewBox="0 0 40 40" fill="none" xmlns="http://www.w3.org/2000/svg">
<rect x="0.5" y="0.5" width="39" height="39" rx="7.5" stroke="#AE2D35"/>
<path d="M24.1992 13.6V14.4H22.5992V13.6H17.7992V14.4H16.1992V13.6C16.1992 13.1757 16.3678 12.7687 16.6678 12.4686C16.9679 12.1686 17.3749 12 17.7992 12H22.5992C23.0236 12 23.4305 12.1686 23.7306 12.4686C24.0306 12.7687 24.1992 13.1757 24.1992 13.6Z" fill="#AE2D35"/>
<path d="M26.6 15.2002H13.8C13.5878 15.2002 13.3843 15.2845 13.2343 15.4345C13.0843 15.5845 13 15.788 13 16.0002C13 16.2124 13.0843 16.4159 13.2343 16.5659C13.3843 16.7159 13.5878 16.8002 13.8 16.8002H14.6V26.4002C14.6 26.8245 14.7686 27.2315 15.0686 27.5316C15.3687 27.8316 15.7757 28.0002 16.2 28.0002H24.2C24.6243 28.0002 25.0313 27.8316 25.3314 27.5316C25.6314 27.2315 25.8 26.8245 25.8 26.4002V16.8002H26.6C26.8122 16.8002 27.0157 16.7159 27.1657 16.5659C27.3157 16.4159 27.4 16.2124 27.4 16.0002C27.4 15.788 27.3157 15.5845 27.1657 15.4345C27.0157 15.2845 26.8122 15.2002 26.6 15.2002ZM19.4 24.0002C19.4 24.2124 19.3157 24.4159 19.1657 24.5659C19.0157 24.7159 18.8122 24.8002 18.6 24.8002C18.3878 24.8002 18.1843 24.7159 18.0343 24.5659C17.8843 24.4159 17.8 24.2124 17.8 24.0002V19.2002C17.8 18.988 17.8843 18.7845 18.0343 18.6345C18.1843 18.4845 18.3878 18.4002 18.6 18.4002C18.8122 18.4002 19.0157 18.4845 19.1657 18.6345C19.3157 18.7845 19.4 18.988 19.4 19.2002V24.0002ZM22.6 24.0002C22.6 24.2124 22.5157 24.4159 22.3657 24.5659C22.2157 24.7159 22.0122 24.8002 21.8 24.8002C21.5878 24.8002 21.3843 24.7159 21.2343 24.5659C21.0843 24.4159 21 24.2124 21 24.0002V19.2002C21 18.988 21.0843 18.7845 21.2343 18.6345C21.3843 18.4845 21.5878 18.4002 21.8 18.4002C22.0122 18.4002 22.2157 18.4845 22.3657 18.6345C22.5157 18.7845 22.6 18.988 22.6 19.2002V24.0002Z" fill="#AE2D35"/>
</svg>
