<svg width="40" height="40" viewBox="0 0 40 40" fill="none" xmlns="http://www.w3.org/2000/svg">
<rect x="0.5" y="0.5" width="39" height="39" rx="7.5" stroke="#18B36A"/>
<path d="M24.2244 11.8933C24.5851 11.7439 24.9717 11.667 25.3621 11.667C25.7525 11.667 26.1391 11.7439 26.4999 11.8933C26.8605 12.0427 27.1883 12.2617 27.4644 12.5378C27.7405 12.8138 27.9595 13.1416 28.1089 13.5023C28.2582 13.863 28.3351 14.2496 28.3351 14.64C28.3351 15.0304 28.2582 15.417 28.1089 15.7777C27.9595 16.1384 27.7405 16.4662 27.4644 16.7422L27.0325 17.174L22.8281 12.9696L23.2599 12.5378C23.536 12.2617 23.8637 12.0427 24.2244 11.8933Z" fill="#18B36A"/>
<path d="M21.6491 14.1475L13.0468 22.7498C12.9443 22.8523 12.8702 22.9799 12.8321 23.1198L11.6974 27.2805C11.6187 27.569 11.7006 27.8775 11.9121 28.089C12.1235 28.3005 12.4321 28.3824 12.7206 28.3037L16.8813 27.169C17.0212 27.1308 17.1487 27.0568 17.2513 26.9542L25.8535 18.352L21.6491 14.1475Z" fill="#18B36A"/>
</svg>
