<svg width="20" height="20" viewBox="0 0 20 20" fill="none" xmlns="http://www.w3.org/2000/svg">
<path d="M2.72891 12.1388C2.02064 11.3106 1.6665 10.8965 1.6665 9.66699C1.6665 8.43744 2.02064 8.02339 2.72891 7.19524C4.14314 5.54166 6.51493 3.66699 9.99984 3.66699C13.4848 3.66699 15.8565 5.54166 17.2708 7.19524C17.979 8.02339 18.3332 8.43744 18.3332 9.66699C18.3332 10.8965 17.979 11.3106 17.2708 12.1388C15.8565 13.7923 13.4848 15.667 9.99984 15.667C6.51493 15.667 4.14314 13.7923 2.72891 12.1388Z" stroke="#666666" stroke-opacity="0.5" stroke-width="1.2"/>
<path d="M12.5 10C12.5 11.3807 11.3807 12.5 10 12.5C8.61925 12.5 7.5 11.3807 7.5 10C7.5 8.61925 8.61925 7.5 10 7.5C11.3807 7.5 12.5 8.61925 12.5 10Z" stroke="#666666" stroke-opacity="0.5" stroke-width="1.2"/>
</svg>
