<svg width="64" height="64" viewBox="0 0 64 64" fill="none" xmlns="http://www.w3.org/2000/svg">
<path d="M37.3333 6.05176V17.0665C37.3333 18.56 37.3333 19.3067 37.6239 19.8772C37.8796 20.3789 38.2875 20.7869 38.7893 21.0425C39.3597 21.3332 40.1065 21.3332 41.6 21.3332H52.6147M42.6666 34.6663H21.3333M42.6666 45.333H21.3333M26.6666 23.9997H21.3333M37.3333 5.33301H23.4666C18.9862 5.33301 16.746 5.33301 15.0347 6.20496C13.5294 6.97194 12.3056 8.19579 11.5386 9.70108C10.6666 11.4124 10.6666 13.6526 10.6666 18.133V45.8663C10.6666 50.3468 10.6666 52.587 11.5386 54.2983C12.3056 55.8036 13.5294 57.0274 15.0347 57.7944C16.746 58.6663 18.9862 58.6663 23.4666 58.6663H40.5333C45.0137 58.6663 47.2539 58.6663 48.9652 57.7944C50.4705 57.0274 51.6944 55.8036 52.4613 54.2983C53.3333 52.587 53.3333 50.3468 53.3333 45.8663V21.333L37.3333 5.33301Z" stroke="#666666" stroke-width="2" stroke-linecap="round" stroke-linejoin="round"/>
</svg>
