<svg width="24" height="24" viewBox="0 0 24 24" fill="none" xmlns="http://www.w3.org/2000/svg">
<path d="M13.1123 21.7955C16.3272 21.1511 20.484 18.8384 20.484 12.858C20.484 7.4158 16.5004 3.79182 13.6359 2.12664C13.0003 1.75714 12.2562 2.24308 12.2562 2.97829V4.85882C12.2562 6.34173 11.6328 9.04851 9.90032 10.1744C9.01584 10.7492 8.0606 9.88886 7.9531 8.83949L7.86483 7.9778C7.76222 6.97606 6.74199 6.36795 5.94138 6.9787C4.50308 8.07591 3 9.99726 3 12.858C3 20.1716 8.43946 22 11.1591 22C11.3173 22 11.4836 21.9953 11.6567 21.9853C10.3137 21.8705 8.14234 21.0373 8.14234 18.3429C8.14234 16.2352 9.67997 14.8094 10.8482 14.1163C11.1624 13.9298 11.5302 14.1719 11.5302 14.5372V15.1432C11.5302 15.6069 11.7096 16.3319 12.1365 16.8281C12.6197 17.3897 13.3288 16.8014 13.386 16.0629C13.4041 15.8299 13.6384 15.6814 13.8402 15.7994C14.4997 16.1848 15.3416 17.0082 15.3416 18.3429C15.3416 20.4492 14.1805 21.4181 13.1123 21.7955Z" fill="#C2C2C2"/>
</svg>
