<svg width="40" height="40" viewBox="0 0 40 40" fill="none" xmlns="http://www.w3.org/2000/svg">
<rect width="40" height="40" rx="16" fill="#F1F1F1"/>
<path d="M20.1704 25.1657C18.3735 25.1657 16.5766 25.1657 14.7797 25.1657C14.6919 25.1657 14.603 25.1657 14.5148 25.1567C14.0649 25.1153 13.8841 24.8162 14.0759 24.4118C14.2424 24.0627 14.424 23.7226 14.6003 23.3772C15.4327 21.751 16.2651 20.125 17.0975 18.4993C17.1232 18.4497 17.15 18.4 17.1799 18.3526C17.3895 18.021 17.7301 17.9744 17.9983 18.2604C18.1875 18.4605 18.3475 18.6853 18.5163 18.9022C19.3739 20.0082 20.2315 21.1146 21.0891 22.2216C21.4637 22.7032 21.9355 22.7294 22.3755 22.2963C22.5938 22.0812 22.8072 21.8605 23.0281 21.6473C23.4266 21.2627 23.8787 21.2859 24.2041 21.7343C24.8571 22.6342 25.4939 23.546 26.1337 24.4548C26.1837 24.5261 26.222 24.6047 26.2472 24.6878C26.3092 24.8965 26.2215 25.0645 26.0069 25.1202C25.8724 25.1519 25.7343 25.1666 25.596 25.1638C23.7885 25.1668 21.98 25.1674 20.1704 25.1657Z" fill="#C2C2C2"/>
<path d="M24.2003 16.2549C24.1998 16.602 24.0949 16.9412 23.8989 17.2294C23.7029 17.5176 23.4246 17.7419 23.0993 17.8738C22.7739 18.0057 22.4162 18.0393 22.0715 17.9704C21.7268 17.9014 21.4106 17.733 21.163 17.4865C20.9154 17.24 20.7475 16.9265 20.6807 16.5857C20.6138 16.2449 20.651 15.8923 20.7875 15.5724C20.9241 15.2525 21.1538 14.9798 21.4475 14.7889C21.7412 14.598 22.0858 14.4975 22.4375 14.5C22.9059 14.5059 23.3531 14.6932 23.6829 15.0215C24.0126 15.3497 24.1984 15.7927 24.2003 16.2549Z" fill="#C2C2C2"/>
</svg>
