<svg width="64" height="64" viewBox="0 0 64 64" fill="none" xmlns="http://www.w3.org/2000/svg">
<rect width="64" height="64" rx="8" fill="#EEEEEE"/>
<path d="M32.4092 44.7969C28.0965 44.7969 23.7839 44.7969 19.4713 44.7969C19.2606 44.7969 19.0472 44.7969 18.8356 44.7754C17.756 44.6759 17.3219 43.9581 17.7823 42.9876C18.1819 42.1498 18.6177 41.3334 19.0409 40.5045C21.0386 36.6016 23.0363 32.6993 25.034 28.7976C25.0957 28.6785 25.1602 28.5593 25.2319 28.4455C25.735 27.6497 26.5522 27.5377 27.1961 28.2241C27.6501 28.7044 28.0342 29.2439 28.4392 29.7645C30.4974 32.4188 32.5557 35.0743 34.6139 37.731C35.5129 38.887 36.6452 38.9497 37.7013 37.9102C38.2252 37.3941 38.7374 36.8645 39.2677 36.3528C40.2238 35.4298 41.309 35.4854 42.0899 36.5616C43.6572 38.7212 45.1854 40.9096 46.7209 43.0907C46.8409 43.2618 46.9329 43.4505 46.9933 43.6499C47.1423 44.1508 46.9316 44.5541 46.4167 44.6876C46.0939 44.7639 45.7625 44.7991 45.4306 44.7924C41.0925 44.7996 36.7521 44.8011 32.4092 44.7969Z" fill="#C2C2C2"/>
<path d="M42.0808 23.4111C42.0797 24.2441 41.828 25.0581 41.3575 25.7498C40.8871 26.4415 40.2191 26.9797 39.4383 27.2963C38.6575 27.6129 37.7991 27.6936 36.9718 27.5282C36.1444 27.3627 35.3855 26.9585 34.7913 26.3669C34.197 25.7753 33.7941 25.0228 33.6337 24.205C33.4733 23.3871 33.5626 22.5406 33.8902 21.7729C34.2178 21.0052 34.7691 20.3507 35.4741 19.8926C36.1791 19.4344 37.0061 19.1931 37.8502 19.1993C38.9742 19.2134 40.0476 19.6628 40.839 20.4507C41.6304 21.2386 42.0763 22.3017 42.0808 23.4111Z" fill="#C2C2C2"/>
</svg>
