<svg width="16" height="16" viewBox="0 0 16 16" fill="none" xmlns="http://www.w3.org/2000/svg">
<g clip-path="url(#clip0_569_912)">
<path d="M14.9719 13.7785L12.5445 6.99143C12.374 6.54491 11.9924 6.26888 11.554 6.26888C11.1156 6.26888 10.7422 6.54491 10.5554 7.00766L8.13613 13.7785C8.02247 14.0951 8.18484 14.4442 8.50146 14.5578C8.81808 14.6715 9.16717 14.5091 9.28083 14.1925L9.78418 12.788H13.3157L13.8191 14.1925C13.9084 14.4442 14.1438 14.5984 14.3955 14.5984C14.4604 14.5984 14.5335 14.5903 14.5984 14.566C14.915 14.4523 15.0774 14.1032 14.9638 13.7866L14.9719 13.7785ZM10.2307 11.5621L11.5621 7.83575L12.8935 11.5621H10.2307ZM8.16048 4.42599C6.3257 7.32428 4.66955 9.07787 2.65617 10.2469C2.55875 10.3038 2.45321 10.3281 2.35578 10.3281C2.1447 10.3281 1.94174 10.2226 1.82808 10.0277C1.6576 9.73547 1.75502 9.36202 2.04728 9.19965C3.75215 8.20919 5.14853 6.78846 6.7154 4.43411H1.60888C1.27603 4.43411 1 4.15808 1 3.82523C1 3.49237 1.27603 3.21634 1.60888 3.21634H4.65331V1.60888C4.65331 1.27603 4.92934 1 5.26219 1C5.59504 1 5.87108 1.27603 5.87108 1.60888V3.21634H8.9155C9.24836 3.21634 9.52439 3.49237 9.52439 3.82523C9.52439 4.15808 9.24836 4.43411 8.9155 4.43411H8.15237L8.16048 4.42599ZM8.19296 10.3281C8.08742 10.3281 7.98188 10.3038 7.88446 10.2469C7.35676 9.93843 6.84529 9.59745 6.3663 9.24024C6.09839 9.03728 6.04157 8.65571 6.24453 8.3878C6.44749 8.11989 6.82906 8.06306 7.09697 8.26602C7.53536 8.59888 8.01435 8.90738 8.50146 9.19153C8.79373 9.36202 8.89115 9.73547 8.72066 10.0277C8.607 10.2226 8.40404 10.3281 8.19296 10.3281Z" fill="#0066FF"/>
</g>
<defs>
<clipPath id="clip0_569_912">
<rect width="16" height="16" fill="white"/>
</clipPath>
</defs>
</svg>
