<svg width="24" height="24" viewBox="0 0 24 24" fill="none" xmlns="http://www.w3.org/2000/svg">
<mask id="mask0_922_3712" style="mask-type:alpha" maskUnits="userSpaceOnUse" x="0" y="0" width="24" height="24">
<rect width="24" height="24" fill="#D9D9D9"/>
</mask>
<g mask="url(#mask0_922_3712)">
<path d="M6 14.0006C6 15.1492 6.30642 16.2041 6.91925 17.1651C7.53208 18.1259 8.35583 18.8467 9.3905 19.3276C9.25833 19.1287 9.16025 18.9223 9.09625 18.7083C9.03208 18.4941 9 18.2749 9 18.0506C9 17.6582 9.07758 17.2864 9.23275 16.9351C9.38792 16.5839 9.60583 16.2679 9.8865 15.9871L12 13.9043L14.1328 15.9871C14.4134 16.2679 14.6282 16.5839 14.777 16.9351C14.9257 17.2864 15 17.6582 15 18.0506C15 18.2749 14.9679 18.4941 14.9038 18.7083C14.8398 18.9223 14.7417 19.1287 14.6095 19.3276C15.6442 18.8467 16.4679 18.1259 17.0807 17.1651C17.6936 16.2041 18 15.1492 18 14.0006C18 13.1672 17.8458 12.3797 17.5375 11.6381C17.2292 10.8964 16.7833 10.2339 16.2 9.65056C15.8667 9.86723 15.5167 10.0297 15.15 10.1381C14.7833 10.2464 14.4083 10.3006 14.025 10.3006C12.9788 10.3006 12.0766 9.9589 11.3183 9.27556C10.5599 8.59223 10.1288 7.73773 10.025 6.71206C9.375 7.24923 8.8 7.81365 8.3 8.40531C7.8 8.99698 7.37917 9.6034 7.0375 10.2246C6.69583 10.8457 6.4375 11.473 6.2625 12.1063C6.0875 12.7396 6 13.3711 6 14.0006ZM12 15.3006L10.575 16.7006C10.3917 16.8839 10.25 17.0922 10.15 17.3256C10.05 17.5589 10 17.8006 10 18.0506C10 18.5839 10.1958 19.0422 10.5875 19.4256C10.9792 19.8089 11.45 20.0006 12 20.0006C12.55 20.0006 13.0208 19.8089 13.4125 19.4256C13.8042 19.0422 14 18.5839 14 18.0506C14 17.7839 13.95 17.5381 13.85 17.3131C13.75 17.0881 13.6083 16.8839 13.425 16.7006L12 15.3006ZM11 4.78906V6.30056C11 7.14923 11.292 7.8614 11.876 8.43706C12.46 9.01273 13.1763 9.30056 14.025 9.30056C14.3378 9.30056 14.6427 9.24765 14.9395 9.14181C15.2362 9.03615 15.5166 8.8839 15.7807 8.68506L16.2115 8.34681C17.0858 8.99548 17.7692 9.81981 18.2615 10.8198C18.7538 11.8198 19 12.8801 19 14.0006C19 15.9519 18.3212 17.6064 16.9635 18.9641C15.6058 20.3217 13.9513 21.0006 12 21.0006C10.0487 21.0006 8.39417 20.3217 7.0365 18.9641C5.67883 17.6064 5 15.9519 5 14.0006C5 12.2864 5.53817 10.6101 6.6145 8.97181C7.69067 7.33331 9.1525 5.93906 11 4.78906Z" fill="#EE5831"/>
</g>
</svg>
