<svg width="97" height="40" viewBox="0 0 97 40" fill="none" xmlns="http://www.w3.org/2000/svg">
<path d="M0.24 33.96L0.48 29.76C0.666667 29.7867 0.84 29.8133 1 29.84C1.16 29.8667 1.30667 29.88 1.44 29.88C2.26667 29.88 2.90667 29.6267 3.36 29.12C3.81333 28.6133 4.14667 27.9333 4.36 27.08C4.6 26.2 4.76 25.2267 4.84 24.16C4.94667 23.0667 5.02667 21.9733 5.08 20.88L5.44 12.64H22.72V34H17.72V15.52L18.88 16.88H8.72L9.8 15.48L9.52 21.12C9.44 23.0133 9.28 24.7733 9.04 26.4C8.82667 28 8.48 29.4 8 30.6C7.54667 31.8 6.90667 32.7333 6.08 33.4C5.28 34.0667 4.25333 34.4 3 34.4C2.6 34.4 2.16 34.36 1.68 34.28C1.22667 34.2 0.746667 34.0933 0.24 33.96ZM38.9738 34.28C36.7871 34.28 34.8404 33.8133 33.1338 32.88C31.4271 31.92 30.0804 30.6133 29.0938 28.96C28.1071 27.3067 27.6138 25.4267 27.6138 23.32C27.6138 21.1867 28.1071 19.3067 29.0938 17.68C30.0804 16.0267 31.4271 14.7333 33.1338 13.8C34.8404 12.8667 36.7871 12.4 38.9738 12.4C41.1871 12.4 43.1471 12.8667 44.8538 13.8C46.5871 14.7333 47.9338 16.0133 48.8938 17.64C49.8804 19.2667 50.3738 21.16 50.3738 23.32C50.3738 25.4267 49.8804 27.3067 48.8938 28.96C47.9338 30.6133 46.5871 31.92 44.8538 32.88C43.1471 33.8133 41.1871 34.28 38.9738 34.28ZM38.9738 30C40.2004 30 41.2938 29.7333 42.2538 29.2C43.2138 28.6667 43.9604 27.8933 44.4938 26.88C45.0538 25.8667 45.3338 24.68 45.3338 23.32C45.3338 21.9333 45.0538 20.7467 44.4938 19.76C43.9604 18.7467 43.2138 17.9733 42.2538 17.44C41.2938 16.9067 40.2138 16.64 39.0138 16.64C37.7871 16.64 36.6938 16.9067 35.7338 17.44C34.8004 17.9733 34.0538 18.7467 33.4938 19.76C32.9338 20.7467 32.6538 21.9333 32.6538 23.32C32.6538 24.68 32.9338 25.8667 33.4938 26.88C34.0538 27.8933 34.8004 28.6667 35.7338 29.2C36.6938 29.7333 37.7738 30 38.9738 30ZM55.3131 34V12.64H71.7131V16.88H59.1531L60.3131 15.76V34H55.3131ZM83.9347 34.28C81.748 34.28 79.8014 33.8133 78.0947 32.88C76.388 31.92 75.0414 30.6133 74.0547 28.96C73.068 27.3067 72.5747 25.4267 72.5747 23.32C72.5747 21.1867 73.068 19.3067 74.0547 17.68C75.0414 16.0267 76.388 14.7333 78.0947 13.8C79.8014 12.8667 81.748 12.4 83.9347 12.4C86.148 12.4 88.108 12.8667 89.8147 13.8C91.548 14.7333 92.8947 16.0133 93.8547 17.64C94.8414 19.2667 95.3347 21.16 95.3347 23.32C95.3347 25.4267 94.8414 27.3067 93.8547 28.96C92.8947 30.6133 91.548 31.92 89.8147 32.88C88.108 33.8133 86.148 34.28 83.9347 34.28ZM83.9347 30C85.1614 30 86.2547 29.7333 87.2147 29.2C88.1747 28.6667 88.9214 27.8933 89.4547 26.88C90.0147 25.8667 90.2947 24.68 90.2947 23.32C90.2947 21.9333 90.0147 20.7467 89.4547 19.76C88.9214 18.7467 88.1747 17.9733 87.2147 17.44C86.2547 16.9067 85.1747 16.64 83.9747 16.64C82.748 16.64 81.6547 16.9067 80.6947 17.44C79.7614 17.9733 79.0147 18.7467 78.4547 19.76C77.8947 20.7467 77.6147 21.9333 77.6147 23.32C77.6147 24.68 77.8947 25.8667 78.4547 26.88C79.0147 27.8933 79.7614 28.6667 80.6947 29.2C81.6547 29.7333 82.7347 30 83.9347 30Z" fill="#525252"/>
</svg>
