<svg width="20" height="20" viewBox="0 0 20 20" fill="none" xmlns="http://www.w3.org/2000/svg">
<path d="M2.5 7.25781C2.5 6.02986 2.5 5.41589 2.8272 5.05779C2.94337 4.93065 3.08456 4.82888 3.24191 4.75888C3.68511 4.56171 4.26758 4.75587 5.43251 5.14418C6.32188 5.44064 6.76657 5.58887 7.21592 5.57352C7.38095 5.56789 7.54501 5.54592 7.70571 5.50793C8.14326 5.40451 8.53325 5.1445 9.31333 4.62447L10.4652 3.85648C11.4645 3.19036 11.9641 2.8573 12.5376 2.7805C13.1111 2.7037 13.6807 2.89357 14.8199 3.27332L15.7906 3.59686C16.6156 3.87187 17.0281 4.00938 17.2641 4.33674C17.5 4.6641 17.5 5.09892 17.5 5.96857V12.7422C17.5 13.9702 17.5 14.5842 17.1728 14.9422C17.0567 15.0694 16.9154 15.1712 16.7581 15.2412C16.3149 15.4383 15.7324 15.2442 14.5675 14.8558C13.6781 14.5594 13.2334 14.4112 12.7841 14.4265C12.6191 14.4322 12.455 14.4541 12.2943 14.4921C11.8567 14.5955 11.4668 14.8555 10.6867 15.3756L9.53475 16.1435C8.5355 16.8097 8.03593 17.1427 7.46244 17.2195C6.88895 17.2963 6.31933 17.1064 5.18008 16.7267L4.20943 16.4032C3.38441 16.1282 2.97189 15.9907 2.73595 15.6632C2.5 15.3359 2.5 14.9011 2.5 14.0314V7.25781Z" stroke="#1C274C"/>
<path d="M7.5 5.53223V17.0833" stroke="#1C274C"/>
<path d="M12.5 2.5V14.1667" stroke="#1C274C"/>
</svg>
