<svg width="16" height="16" viewBox="0 0 16 16" fill="none" xmlns="http://www.w3.org/2000/svg">
<g clip-path="url(#clip0_718_1020)">
<path d="M12.821 3.178C12.1889 2.20347 11.3233 1.40231 10.3029 0.847308C9.28249 0.292306 8.13958 0.00105046 6.978 0C5.12806 0.0018527 3.35441 0.73749 2.04621 2.0455C0.738011 3.35351 0.00211783 5.12706 0 6.977C0.000825483 8.13901 0.292076 9.28239 0.847271 10.3032C1.40247 11.324 2.204 12.1898 3.179 12.822C3.81111 13.7965 4.67668 14.5977 5.69709 15.1527C6.71751 15.7077 7.86042 15.999 9.022 16C10.8719 15.9981 12.6456 15.2625 13.9538 13.9545C15.262 12.6465 15.9979 10.8729 16 9.023C15.9992 7.86099 15.7079 6.71761 15.1527 5.69681C14.5975 4.67601 13.796 3.81017 12.821 3.178ZM12.954 6.978C12.9524 8.56263 12.3224 10.0819 11.202 11.2026C10.0817 12.3233 8.56263 12.9539 6.978 12.956C5.39293 12.9541 3.87333 12.3236 2.75261 11.2027C1.63189 10.0818 1.00159 8.56207 1 6.977C1.00185 5.3922 1.6323 3.87285 2.75302 2.75232C3.87374 1.63178 5.3932 1.00159 6.978 1C8.56254 1.00185 10.0816 1.6322 11.202 2.75273C12.3223 3.87326 12.9524 5.39346 12.954 6.978ZM9.022 15C7.71193 15.0005 6.43848 14.5677 5.4 13.769C5.91591 13.8905 6.44398 13.9529 6.974 13.955C8.82377 13.9526 10.5971 13.2166 11.9049 11.9084C13.2126 10.6003 13.9481 8.82677 13.95 6.977C13.9499 6.44615 13.8892 5.91705 13.769 5.4C14.5678 6.43879 15.0006 7.7126 15 9.023C14.9981 10.6078 14.3677 12.1272 13.247 13.2477C12.1263 14.3682 10.6068 14.9984 9.022 15ZM6.478 2.5V3H6C5.46957 3 4.96086 3.21071 4.58579 3.58579C4.21071 3.96086 4 4.46957 4 5C4 5.53043 4.21071 6.03914 4.58579 6.41421C4.96086 6.78929 5.46957 7 6 7H6.478V9.5H6.25C5.91864 9.49947 5.60101 9.36761 5.3667 9.1333C5.1324 8.89899 5.00053 8.58136 5 8.25C5 8.11739 4.94732 7.99021 4.85355 7.89645C4.75979 7.80268 4.63261 7.75 4.5 7.75C4.36739 7.75 4.24021 7.80268 4.14645 7.89645C4.05268 7.99021 4 8.11739 4 8.25C4.00079 8.84649 4.2381 9.41833 4.65989 9.84011C5.08167 10.2619 5.65351 10.4992 6.25 10.5H6.478V11.5C6.478 11.6326 6.53068 11.7598 6.62445 11.8536C6.71821 11.9473 6.84539 12 6.978 12C7.11061 12 7.23778 11.9473 7.33155 11.8536C7.42532 11.7598 7.478 11.6326 7.478 11.5V10.5H7.75C8.34649 10.4992 8.91833 10.2619 9.34011 9.84011C9.7619 9.41833 9.99921 8.84649 10 8.25C9.99921 7.65351 9.7619 7.08167 9.34011 6.65989C8.91833 6.2381 8.34649 6.00079 7.75 6H7.478V4H8C8.26522 4 8.51957 4.10536 8.70711 4.29289C8.89464 4.48043 9 4.73478 9 5V5.5C9 5.63261 9.05268 5.75979 9.14645 5.85355C9.24021 5.94732 9.36739 6 9.5 6C9.63261 6 9.75979 5.94732 9.85355 5.85355C9.94732 5.75979 10 5.63261 10 5.5V5C10 4.46957 9.78929 3.96086 9.41421 3.58579C9.03914 3.21071 8.53043 3 8 3H7.478V2.5C7.478 2.36739 7.42532 2.24021 7.33155 2.14645C7.23778 2.05268 7.11061 2 6.978 2C6.84539 2 6.71821 2.05268 6.62445 2.14645C6.53068 2.24021 6.478 2.36739 6.478 2.5ZM9 8.25C8.99947 8.58136 8.86761 8.89899 8.6333 9.1333C8.39899 9.36761 8.08136 9.49947 7.75 9.5H7.478V7H7.75C8.08136 7.00053 8.39899 7.13239 8.6333 7.3667C8.86761 7.60101 8.99947 7.91864 9 8.25ZM6.478 6H6C5.73478 6 5.48043 5.89464 5.29289 5.70711C5.10536 5.51957 5 5.26522 5 5C5 4.73478 5.10536 4.48043 5.29289 4.29289C5.48043 4.10536 5.73478 4 6 4H6.478V6Z" fill="#18B36A"/>
</g>
<defs>
<clipPath id="clip0_718_1020">
<rect width="16" height="16" fill="white"/>
</clipPath>
</defs>
</svg>
