<svg width="16" height="16" viewBox="0 0 16 16" fill="none" xmlns="http://www.w3.org/2000/svg">
<path d="M14.8266 4.6681V4.66805C14.8264 4.03992 14.3153 3.52848 13.6866 3.52848H10.2934V3.03957C10.2934 2.41112 9.78192 1.9 9.15381 1.9H7.57244C6.94428 1.9 6.43287 2.41112 6.43287 3.03957V3.52853H3.03958C3.03958 3.52853 3.03957 3.52853 3.03957 3.52853C2.41085 3.52848 1.9 4.03996 1.9 4.6681V12.9604C1.9 13.5885 2.41085 14.1 3.03957 14.1H13.6865C14.3152 14.1 14.8266 13.5886 14.8266 12.9604V4.6681ZM14.0844 12.8604H14.0841V12.9604C14.0841 13.1794 13.9056 13.3577 13.6863 13.3577H3.03957C2.82041 13.3577 2.64229 13.1795 2.64229 12.9604V9.18536H14.0844V12.8604ZM7.17511 3.03957C7.17511 2.82041 7.35323 2.64229 7.57239 2.64229H9.15376C9.37292 2.64229 9.55103 2.82041 9.55103 3.03957V3.52853H7.17511V3.03957ZM14.0843 8.44307H2.64229V4.66805C2.64229 4.44889 2.82041 4.27077 3.03957 4.27077H6.53277H7.07507H9.65098H10.1933H13.6865C13.9058 4.27077 14.0843 4.44903 14.0843 4.66805V8.44307Z" fill="#0066FF" stroke="#0066FF" stroke-width="0.2"/>
</svg>
