<svg width="24" height="24" viewBox="0 0 24 24" fill="none" xmlns="http://www.w3.org/2000/svg">
<path d="M5.60078 12.7992H4.80078V11.1992H5.60078C6.04261 11.1992 6.40078 11.5574 6.40078 11.9992C6.40078 12.441 6.04261 12.7992 5.60078 12.7992Z" fill="#07133B"/>
<path d="M11.1992 15.9992V11.1992H11.9992C12.441 11.1992 12.7992 11.5574 12.7992 11.9992V15.1992C12.7992 15.641 12.441 15.9992 11.9992 15.9992H11.1992Z" fill="#07133B"/>
<path fill-rule="evenodd" clip-rule="evenodd" d="M1.59961 2.4C1.59961 1.07452 2.67412 0 3.99961 0H17.131L22.3996 5.26862V21.6C22.3996 22.9254 21.3251 24 19.9996 24H3.99961C2.67412 24 1.59961 22.9254 1.59961 21.6V2.4ZM5.59961 9.6H3.19961V17.6H4.79961V14.4H5.59961C6.9251 14.4 7.99961 13.3255 7.99961 12C7.99961 10.6745 6.9251 9.6 5.59961 9.6ZM11.9996 9.6H9.59961V17.6H11.9996C13.3251 17.6 14.3996 16.5254 14.3996 15.2V12C14.3996 10.6745 13.3251 9.6 11.9996 9.6ZM15.9996 17.6V9.6H20.7996V11.2H17.5996V12.8H19.1996V14.4H17.5996V17.6H15.9996Z" fill="#07133B"/>
</svg>
