<svg width="101" height="120" viewBox="0 0 101 120" fill="none" xmlns="http://www.w3.org/2000/svg">
<g opacity="0.3">
<path opacity="0.3" d="M69.9274 24.6239C67.1903 24.6213 64.5659 23.5342 62.6304 21.6014C60.695 19.6685 59.6064 17.0478 59.6038 14.3143V0H13.4728C9.89959 0 6.47275 1.41755 3.9461 3.94075C1.41946 6.46394 0 9.88604 0 13.4544V94.5609C0.0053062 98.1257 1.4271 101.543 3.95316 104.062C6.47923 106.581 9.90305 107.995 13.4728 107.995H68.851C72.4208 107.995 75.8446 106.581 78.3707 104.062C80.8967 101.543 82.3185 98.1257 82.3238 94.5609V24.6239H69.9274Z" fill="#696E7E"/>
</g>
<path d="M82.3236 24.6239H69.9272C67.19 24.6213 64.5656 23.5342 62.6302 21.6014C60.6947 19.6685 59.6062 17.0478 59.6035 14.3143V0L82.3236 24.6239Z" fill="#696E7E"/>
<path d="M65.3861 75.4167H13.6978C13.1999 75.4167 12.7223 75.2192 12.3702 74.8675C12.0181 74.5159 11.8203 74.039 11.8203 73.5418C11.8216 73.0454 12.02 72.5697 12.372 72.2192C12.7239 71.8687 13.2007 71.6719 13.6978 71.6719H65.3861C65.8827 71.6719 66.359 71.8688 66.7102 72.2195C67.0613 72.5701 67.2586 73.0459 67.2586 73.5418C67.2593 73.7878 67.2113 74.0315 67.1175 74.2589C67.0237 74.4864 66.8859 74.693 66.7119 74.8672C66.538 75.0413 66.3314 75.1796 66.1039 75.2739C65.8764 75.3682 65.6324 75.4167 65.3861 75.4167Z" fill="#696E7E"/>
<path d="M65.3861 54.2976H13.6978C13.2007 54.2976 12.7239 54.1006 12.372 53.7501C12.02 53.3996 11.8216 52.924 11.8203 52.4277C11.8203 51.9304 12.0181 51.4534 12.3702 51.1018C12.7223 50.7502 13.1999 50.5527 13.6978 50.5527H65.3861C65.6324 50.5527 65.8764 50.6013 66.1039 50.6956C66.3314 50.7898 66.538 50.928 66.7119 51.1021C66.8859 51.2763 67.0237 51.4831 67.1175 51.7105C67.2113 51.938 67.2593 52.1817 67.2586 52.4277C67.2586 52.9236 67.0613 53.3992 66.7102 53.7499C66.359 54.1005 65.8827 54.2976 65.3861 54.2976Z" fill="#696E7E"/>
<path d="M65.3861 64.8571H13.6978C13.1999 64.8571 12.7223 64.6596 12.3702 64.308C12.0181 63.9564 11.8203 63.4795 11.8203 62.9822C11.8216 62.4858 12.02 62.0102 12.372 61.6596C12.7239 61.3091 13.2007 61.1123 13.6978 61.1123H65.3861C65.8827 61.1123 66.359 61.3093 66.7102 61.66C67.0613 62.0107 67.2586 62.4863 67.2586 62.9822C67.2593 63.2282 67.2113 63.4719 67.1175 63.6994C67.0237 63.9268 66.8859 64.1336 66.7119 64.3077C66.538 64.4819 66.3314 64.62 66.1039 64.7143C65.8764 64.8086 65.6324 64.8571 65.3861 64.8571Z" fill="#696E7E"/>
<path d="M44.9992 43.738H13.6978C13.2007 43.738 12.7239 43.5412 12.372 43.1907C12.02 42.8401 11.8216 42.3645 11.8203 41.8681C11.8203 41.3708 12.0181 40.894 12.3702 40.5423C12.7223 40.1907 13.1999 39.9932 13.6978 39.9932H44.9992C45.4963 39.9945 45.9725 40.1926 46.3235 40.544C46.6745 40.8955 46.8717 41.3717 46.8717 41.8681C46.8703 42.3636 46.6726 42.8384 46.3218 43.1888C45.9709 43.5392 45.4954 43.7367 44.9992 43.738Z" fill="#696E7E"/>
<path d="M44.9992 33.1784H13.6978C13.2007 33.1784 12.7239 32.9815 12.372 32.631C12.02 32.2804 11.8216 31.8049 11.8203 31.3085C11.8203 30.8113 12.0181 30.3343 12.3702 29.9826C12.7223 29.631 13.1999 29.4336 13.6978 29.4336H44.9992C45.4963 29.4349 45.9725 29.633 46.3235 29.9845C46.6745 30.3359 46.8717 30.8121 46.8717 31.3085C46.8703 31.804 46.6726 32.2789 46.3218 32.6293C45.9709 32.9796 45.4954 33.1771 44.9992 33.1784Z" fill="#696E7E"/>
<path d="M92.0926 85.3018H29.4898C25.0491 85.3018 21.4492 88.8968 21.4492 93.3314V111.971C21.4492 116.405 25.0491 120 29.4898 120H92.0926C96.5333 120 100.133 116.405 100.133 111.971V93.3314C100.133 88.8968 96.5333 85.3018 92.0926 85.3018Z" fill="#07133B"/>
<path d="M41.9857 106.686V110.32H38.2207V106.686H41.9857Z" fill="white"/>
<path d="M47.5226 105.046V110.32H43.8828V95.2861H49.7806C51.568 95.2861 52.9348 95.7311 53.871 96.616C54.3448 97.0809 54.7146 97.6407 54.9562 98.2585C55.1978 98.8764 55.3058 99.5383 55.2729 100.201C55.2911 101.075 55.075 101.938 54.647 102.701C54.21 103.446 53.562 104.047 52.7846 104.426C51.8468 104.868 50.8173 105.083 49.7806 105.051L47.5226 105.046ZM51.568 100.201C51.568 98.8676 50.837 98.2009 49.3751 98.2009H47.5226V102.116H49.3751C50.837 102.129 51.568 101.491 51.568 100.201Z" fill="white"/>
<path d="M69.6581 106.695C69.0312 107.832 68.0843 108.761 66.9345 109.365C65.6407 110.027 64.202 110.355 62.7489 110.32H57.0664V95.286H62.7489C64.2031 95.2495 65.6439 95.5705 66.9445 96.2209C68.0911 96.8127 69.0357 97.7316 69.6581 98.8608C70.3095 100.06 70.6373 101.407 70.6093 102.771C70.6365 104.139 70.3088 105.491 69.6581 106.695ZM65.7429 105.94C66.1499 105.523 66.4652 105.026 66.6686 104.48C66.8721 103.934 66.9592 103.352 66.9244 102.771C66.9594 102.19 66.8724 101.608 66.6689 101.063C66.4654 100.518 66.15 100.022 65.7429 99.6058C64.8323 98.8078 63.6427 98.4017 62.4335 98.4758H60.7062V107.065H62.4335C63.6417 107.139 64.8304 106.735 65.7429 105.94Z" fill="white"/>
<path d="M82.4899 95.2861V98.181H76.3167V101.476H81.083V104.241H76.3167V110.32H72.6719V95.2861H82.4899Z" fill="white"/>
<path d="M64.4696 29.4336H55.6179C54.075 29.4336 52.8242 30.6827 52.8242 32.2235V41.0631C52.8242 42.6039 54.075 43.853 55.6179 43.853H64.4696C66.0125 43.853 67.2633 42.6039 67.2633 41.0631V32.2235C67.2633 30.6827 66.0125 29.4336 64.4696 29.4336Z" fill="#18B56B"/>
</svg>
