<svg width="24" height="24" viewBox="0 0 24 24" fill="none" xmlns="http://www.w3.org/2000/svg">
<path fill-rule="evenodd" clip-rule="evenodd" d="M14.795 2H9.205C8.09 2 7.686 2.116 7.279 2.334C6.87638 2.54714 6.54714 2.87638 6.334 3.279C6.116 3.686 6 4.09 6 5.205V18.795C6 19.909 6.116 20.314 6.334 20.721C6.552 21.128 6.872 21.448 7.279 21.666C7.686 21.884 8.09 22 9.205 22H14.795C15.909 22 16.314 21.884 16.721 21.666C17.128 21.448 17.448 21.128 17.666 20.721C17.884 20.314 18 19.91 18 18.795V5.205C18 4.09 17.884 3.686 17.666 3.279C17.4529 2.87638 17.1236 2.54714 16.721 2.334C16.314 2.116 15.91 2 14.795 2ZM8 17.995V6.005H16V17.995H8Z" fill="#666666"/>
</svg>
