<svg width="32" height="32" viewBox="0 0 32 32" fill="none" xmlns="http://www.w3.org/2000/svg">
<path d="M3.9987 13.3216C5.47146 13.3216 6.66537 12.1277 6.66537 10.6549C6.66537 9.18219 5.47146 7.98828 3.9987 7.98828C2.52594 7.98828 1.33203 9.18219 1.33203 10.6549C1.33203 12.1277 2.52594 13.3216 3.9987 13.3216Z" fill="#18B36A"/>
<path d="M2.66667 24.0013H0V17.3346C0 16.6274 0.280909 15.9491 0.781006 15.449C1.2811 14.9489 1.95942 14.668 2.66667 14.668H14.6667V17.3346H2.66667V24.0013Z" fill="#18B36A"/>
<path d="M7.9987 31.987H5.33203V23.987H3.9987V31.987H1.33203V21.3203H7.9987V31.987Z" fill="#18B36A"/>
<path d="M7.9987 15.9883H1.33203V23.9883H7.9987V15.9883Z" fill="#18B36A"/>
<path d="M26.6667 29.319H20V2.65234H26.6667V5.31901H22.6667V26.6523H26.6667V29.319Z" fill="#07133B"/>
<path d="M28 32C27.2089 32 26.4356 31.7654 25.7778 31.3258C25.12 30.8863 24.6072 30.2616 24.3045 29.5307C24.0017 28.7998 23.9225 27.9956 24.0769 27.2196C24.2312 26.4437 24.6122 25.731 25.1716 25.1715C25.731 24.6121 26.4438 24.2312 27.2197 24.0769C27.9956 23.9225 28.7999 24.0017 29.5308 24.3045C30.2617 24.6072 30.8864 25.1199 31.3259 25.7777C31.7654 26.4355 32 27.2089 32 28C32 29.0609 31.5786 30.0783 30.8285 30.8284C30.0783 31.5786 29.0609 32 28 32ZM28 26.6667C27.7363 26.6667 27.4785 26.7448 27.2592 26.8914C27.04 27.0379 26.8691 27.2461 26.7682 27.4897C26.6673 27.7334 26.6409 28.0014 26.6923 28.2601C26.7438 28.5187 26.8708 28.7563 27.0572 28.9428C27.2437 29.1293 27.4813 29.2562 27.7399 29.3077C27.9986 29.3591 28.2667 29.3327 28.5103 29.2318C28.7539 29.1309 28.9622 28.96 29.1087 28.7408C29.2552 28.5215 29.3334 28.2637 29.3334 28C29.3334 27.6464 29.1929 27.3072 28.9428 27.0572C28.6928 26.8071 28.3537 26.6667 28 26.6667Z" fill="#07133B"/>
<path d="M28 20C27.2089 20 26.4356 19.7654 25.7778 19.3258C25.12 18.8863 24.6072 18.2616 24.3045 17.5307C24.0017 16.7998 23.9225 15.9956 24.0769 15.2196C24.2312 14.4437 24.6122 13.731 25.1716 13.1715C25.731 12.6121 26.4438 12.2312 27.2197 12.0769C27.9956 11.9225 28.7999 12.0017 29.5308 12.3045C30.2617 12.6072 30.8864 13.1199 31.3259 13.7777C31.7654 14.4355 32 15.2089 32 16C32 17.0609 31.5786 18.0783 30.8285 18.8284C30.0783 19.5786 29.0609 20 28 20ZM28 14.6667C27.7363 14.6667 27.4785 14.7448 27.2592 14.8914C27.04 15.0379 26.8691 15.2461 26.7682 15.4897C26.6673 15.7334 26.6409 16.0014 26.6923 16.2601C26.7438 16.5187 26.8708 16.7563 27.0572 16.9428C27.2437 17.1293 27.4813 17.2562 27.7399 17.3077C27.9986 17.3591 28.2667 17.3327 28.5103 17.2318C28.7539 17.1309 28.9622 16.96 29.1087 16.7408C29.2552 16.5215 29.3334 16.2637 29.3334 16C29.3334 15.6464 29.1929 15.3072 28.9428 15.0572C28.6928 14.8071 28.3537 14.6667 28 14.6667Z" fill="#07133B"/>
<path d="M28 8C27.2089 8 26.4356 7.76537 25.7778 7.32584C25.12 6.88632 24.6072 6.26162 24.3045 5.53072C24.0017 4.79981 23.9225 3.99557 24.0769 3.21964C24.2312 2.44372 24.6122 1.73096 25.1716 1.17155C25.731 0.612137 26.4438 0.231202 27.2197 0.0768613C27.9956 -0.0774795 28.7999 0.00173126 29.5308 0.304482C30.2617 0.607232 30.8864 1.11991 31.3259 1.77771C31.7654 2.4355 32 3.20887 32 4C32 5.06086 31.5786 6.07826 30.8285 6.82841C30.0783 7.57855 29.0609 8 28 8ZM28 2.66666C27.7363 2.66666 27.4785 2.74485 27.2592 2.89136C27.04 3.03786 26.8691 3.24611 26.7682 3.48974C26.6673 3.73338 26.6409 4.00145 26.6923 4.26009C26.7438 4.51873 26.8708 4.75632 27.0572 4.94279C27.2437 5.12926 27.4813 5.25625 27.7399 5.3077C27.9986 5.35914 28.2667 5.33273 28.5103 5.23181C28.7539 5.13089 28.9622 4.96003 29.1087 4.74076C29.2552 4.5215 29.3334 4.26371 29.3334 4C29.3334 3.64638 29.1929 3.30722 28.9428 3.05717C28.6928 2.80712 28.3537 2.66666 28 2.66666Z" fill="#07133B"/>
<path d="M25.332 14.6523H17.332V17.319H25.332V14.6523Z" fill="#07133B"/>
</svg>
