<svg width="64" height="64" viewBox="0 0 64 64" fill="none" xmlns="http://www.w3.org/2000/svg">
<circle cx="32" cy="32" r="32" fill="#E6F5EE"/>
<path d="M33.5728 43.9997H26.9824V37.3848L46.4099 17.8848L53.0003 24.4997L33.5728 43.9997ZM29.9713 40.9997H32.3325L48.7711 24.4997L46.4099 22.1147L29.9713 38.6147V40.9997Z" fill="#18B36A"/>
<path d="M31.0278 35.435L28.9141 37.5566L33.3953 42.0546L35.509 39.9329L31.0278 35.435Z" fill="#18B36A"/>
<path d="M43.4052 50H18V14H43.4052V20H40.4163V17H20.9888V47H40.4163V39.5H43.4052V50Z" fill="#07133B"/>
<path d="M35.9319 20H23.9766V23H35.9319V20Z" fill="#07133B"/>
<path d="M31.4487 26H23.9766V29H31.4487V26Z" fill="#07133B"/>
<path d="M26.9664 32H23.9766V35H26.9664V32Z" fill="#07133B"/>
</svg>
