<svg width="46" height="56" viewBox="0 0 46 56" fill="none" xmlns="http://www.w3.org/2000/svg">
<path d="M28.3332 2.05176V13.0665C28.3332 14.56 28.3332 15.3067 28.6238 15.8772C28.8795 16.3789 29.2874 16.7869 29.7892 17.0425C30.3596 17.3332 31.1064 17.3332 32.5998 17.3332H43.6146M33.6665 30.6663H12.3332M33.6665 41.333H12.3332M17.6665 19.9997H12.3332M28.3332 1.33301H14.4665C9.98608 1.33301 7.74587 1.33301 6.03458 2.20496C4.52928 2.97194 3.30544 4.19579 2.53845 5.70108C1.6665 7.41238 1.6665 9.65259 1.6665 14.133V41.8663C1.6665 46.3468 1.6665 48.587 2.53845 50.2983C3.30544 51.8036 4.52928 53.0274 6.03458 53.7944C7.74587 54.6663 9.98608 54.6663 14.4665 54.6663H31.5332C36.0136 54.6663 38.2538 54.6663 39.9651 53.7944C41.4704 53.0274 42.6942 51.8036 43.4612 50.2983C44.3332 48.587 44.3332 46.3468 44.3332 41.8663V17.333L28.3332 1.33301Z" stroke="#666666" stroke-width="2" stroke-linecap="round" stroke-linejoin="round"/>
</svg>
