<svg width="64" height="64" viewBox="0 0 64 64" fill="none" xmlns="http://www.w3.org/2000/svg">
<circle cx="32" cy="32" r="32" fill="#E6F5EE"/>
<path d="M44.1667 47.0833H41.25V44.1666C41.2489 43.9747 41.2857 43.7845 41.3583 43.6068C41.4308 43.4291 41.5378 43.2675 41.673 43.1312L47.0834 37.7354V23.75C47.0834 23.3632 46.9297 22.9923 46.6562 22.7188C46.3827 22.4453 46.0118 22.2917 45.625 22.2917C45.2382 22.2917 44.8673 22.4453 44.5938 22.7188C44.3203 22.9923 44.1667 23.3632 44.1667 23.75V31.0417H41.25V23.75C41.25 22.5897 41.7109 21.4769 42.5314 20.6564C43.3519 19.836 44.4647 19.375 45.625 19.375C46.7853 19.375 47.8981 19.836 48.7186 20.6564C49.5391 21.4769 50 22.5897 50 23.75V38.3333C49.9992 38.5263 49.9601 38.7171 49.885 38.8949C49.8099 39.0726 49.7003 39.2337 49.5625 39.3687L44.1667 44.7646V47.0833Z" fill="#07133B"/>
<path d="M36.8757 47.0848H33.959V35.5494C33.9579 35.3574 33.9947 35.1672 34.0672 34.9895C34.1398 34.8118 34.2468 34.6502 34.3819 34.514L38.0278 30.8681C38.8623 30.0762 39.9689 29.6348 41.1194 29.6348C42.2699 29.6348 43.3765 30.0762 44.2111 30.8681C45.0304 31.6884 45.4906 32.8004 45.4906 33.9598C45.4906 35.1192 45.0304 36.2311 44.2111 37.0514L42.0236 39.2389L39.9673 37.1827L42.1548 34.9952C42.2915 34.8596 42.4 34.6983 42.4741 34.5206C42.5481 34.3429 42.5862 34.1523 42.5862 33.9598C42.5862 33.7673 42.5481 33.5766 42.4741 33.3989C42.4 33.2212 42.2915 33.06 42.1548 32.9244C42.0193 32.7877 41.858 32.6792 41.6803 32.6051C41.5026 32.5311 41.3119 32.493 41.1194 32.493C40.9269 32.493 40.7363 32.5311 40.5586 32.6051C40.3809 32.6792 40.2195 32.7877 40.084 32.9244L36.8757 36.1473V47.0848Z" fill="#07133B"/>
<path d="M47.0683 50H44.1517V48.5417H36.86V50H33.9434V45.625H47.0683V50Z" fill="#07133B"/>
<path d="M23.6188 47.0833H20.7021V44.7646L15.4084 39.3542C15.1443 39.0802 14.9977 38.7138 15 38.3333V23.75C15 22.5897 15.4609 21.4769 16.2814 20.6564C17.1019 19.836 18.2147 19.375 19.375 19.375C20.5353 19.375 21.6481 19.836 22.4686 20.6564C23.2891 21.4769 23.75 22.5897 23.75 23.75V31.0417H20.8334V23.75C20.8334 23.3632 20.6797 22.9923 20.4062 22.7188C20.1327 22.4453 19.7618 22.2917 19.375 22.2917C18.9882 22.2917 18.6173 22.4453 18.3438 22.7188C18.0703 22.9923 17.9167 23.3632 17.9167 23.75V37.7354L23.1958 43.1458C23.4599 43.4198 23.6065 43.7861 23.6042 44.1666L23.6188 47.0833Z" fill="#07133B"/>
<path d="M31.0437 47.0813H28.127V36.1585L24.802 32.9355C24.6662 32.7966 24.504 32.6862 24.3249 32.6109C24.1459 32.5355 23.9536 32.4967 23.7593 32.4967C23.5651 32.4967 23.3727 32.5355 23.1937 32.6109C23.0146 32.6862 22.8524 32.7966 22.7166 32.9355C22.5799 33.0711 22.4714 33.2324 22.3974 33.4101C22.3234 33.5878 22.2852 33.7784 22.2852 33.971C22.2852 34.1635 22.3234 34.354 22.3974 34.5318C22.4714 34.7095 22.5799 34.8708 22.7166 35.0064L24.9041 37.1939L22.8479 39.2501L20.6604 37.0626C19.8411 36.2423 19.3809 35.1303 19.3809 33.971C19.3809 32.8116 19.8411 31.6996 20.6604 30.8793C21.4915 30.0808 22.5994 29.6348 23.752 29.6348C24.9046 29.6348 26.0125 30.0808 26.8437 30.8793L30.5916 34.5105C30.7338 34.6461 30.8471 34.8089 30.9248 34.9894C31.0025 35.1698 31.0429 35.3641 31.0437 35.5605V47.0813Z" fill="#07133B"/>
<path d="M31.0268 50H28.1101V48.5417H20.7018V50H17.7852V45.625H31.0268V50Z" fill="#07133B"/>
<path d="M33.9583 22.291H31.0417C30.2681 22.291 29.5262 22.5983 28.9793 23.1453C28.4323 23.6923 28.125 24.4341 28.125 25.2077V28.1243H36.875V25.2077C36.875 24.4341 36.5677 23.6923 36.0207 23.1453C35.4737 22.5983 34.7319 22.291 33.9583 22.291Z" fill="#18B36A"/>
<path d="M32.485 20.8333C34.0959 20.8333 35.4017 19.5275 35.4017 17.9167C35.4017 16.3058 34.0959 15 32.485 15C30.8742 15 29.5684 16.3058 29.5684 17.9167C29.5684 19.5275 30.8742 20.8333 32.485 20.8333Z" fill="#18B36A"/>
</svg>
