<svg width="56" height="56" viewBox="0 0 56 56" fill="none" xmlns="http://www.w3.org/2000/svg">
<g clip-path="url(#clip0_922_3728)">
<path d="M56 -0.0566406H0V55.9434H56V-0.0566406Z" fill="#1428A0"/>
<path d="M8.32127 26.5001C8.28767 26.3769 8.29887 26.2425 8.31007 26.1753C8.35487 25.9849 8.47807 25.7609 8.87007 25.7609C9.22847 25.7609 9.44127 25.9849 9.44127 26.3097C9.44127 26.4217 9.44127 26.6905 9.44127 26.6905H10.9645V26.2649C10.9645 24.9433 9.76607 24.7305 8.90367 24.7305C7.81727 24.7305 6.94367 25.0889 6.77567 26.0857C6.73087 26.3545 6.71967 26.6009 6.78687 26.9033C7.05567 28.1465 9.21727 28.5049 9.53087 29.3001C9.58687 29.4457 9.57567 29.6361 9.54207 29.7481C9.49727 29.9497 9.35167 30.1625 8.94847 30.1625C8.56767 30.1625 8.34367 29.9385 8.34367 29.6137V29.0313H6.69727V29.5017C6.69727 30.8681 7.76127 31.2713 8.91487 31.2713C10.0125 31.2713 10.9197 30.9017 11.0653 29.8713C11.1437 29.3449 11.0877 29.0089 11.0541 28.8745C10.7965 27.5977 8.48927 27.2169 8.32127 26.5001ZM28.1229 26.5225C28.1005 26.3993 28.1005 26.2761 28.1229 26.2089C28.1677 26.0185 28.3021 25.8057 28.6717 25.8057C29.0189 25.8057 29.2317 26.0297 29.2317 26.3545C29.2317 26.4665 29.2317 26.7241 29.2317 26.7241H30.7325V26.2985C30.7325 24.9881 29.5565 24.7753 28.7053 24.7753C27.6301 24.7753 26.7565 25.1337 26.5997 26.1193C26.5549 26.3881 26.5437 26.6233 26.6109 26.9369C26.8685 28.1689 29.0189 28.5273 29.3213 29.3001C29.3773 29.4457 29.3661 29.6361 29.3325 29.7481C29.2877 29.9497 29.1533 30.1513 28.7501 30.1513C28.3693 30.1513 28.1453 29.9385 28.1453 29.6025V29.0089H26.5325V29.4793C26.5325 30.8233 27.5853 31.2265 28.7277 31.2265C29.8141 31.2265 30.7101 30.8569 30.8557 29.8489C30.9229 29.3337 30.8669 28.9865 30.8445 28.8633C30.5757 27.5977 28.2909 27.2169 28.1229 26.5225ZM41.9549 29.8377L40.5213 24.9321H38.2589V30.9577H39.7485L39.6589 25.8953L41.1933 30.9577H43.3661V24.9321H41.8653L41.9549 29.8377ZM13.2157 24.9321L12.0957 31.0249H13.7421L14.5933 25.3913L15.4221 31.0249H17.0573L15.9373 24.9321H13.2157ZM22.4221 24.9321L21.6493 29.6921L20.8765 24.9321H18.3901L18.2557 31.0249H19.7789L19.8237 25.3913L20.8765 31.0249H22.4221L23.4749 25.3913L23.5197 31.0249H25.0429L24.9085 24.9321H22.4221ZM36.5677 24.9321H35.0333V29.4345C35.0333 29.5129 35.0333 29.6025 35.0221 29.6697C34.9885 29.8153 34.8653 30.1065 34.4397 30.1065C34.0253 30.1065 33.8909 29.8153 33.8573 29.6697C33.8461 29.6025 33.8349 29.5129 33.8461 29.4345V24.9321H32.3117V29.3001C32.3117 29.4121 32.3229 29.6473 32.3229 29.7033C32.4237 30.8457 33.3197 31.2153 34.4509 31.2153C35.5709 31.2153 36.4669 30.8457 36.5789 29.7033C36.5901 29.6473 36.6013 29.4121 36.5901 29.3001L36.5677 24.9321ZM47.1405 27.6089V28.4937H47.7677V29.3785C47.7677 29.4569 47.7677 29.5465 47.7565 29.6137C47.7341 29.7817 47.5773 30.0617 47.1293 30.0617C46.6925 30.0617 46.5357 29.7817 46.5133 29.6137C46.5021 29.5465 46.5021 29.4569 46.5021 29.3785V26.5897C46.5021 26.4889 46.5133 26.3881 46.5245 26.2985C46.5581 26.1529 46.6813 25.8617 47.1293 25.8617C47.5997 25.8617 47.7117 26.1641 47.7341 26.2985C47.7565 26.3881 47.7565 26.5337 47.7565 26.5337V26.8697H49.2909V26.6681C49.2909 26.6681 49.3021 26.4553 49.2797 26.2649C49.1677 25.1225 48.2269 24.7641 47.1405 24.7641C46.0541 24.7641 45.1357 25.1337 45.0013 26.2649C44.9901 26.3657 44.9677 26.5561 44.9677 26.6681V29.2329C44.9677 29.3449 44.9677 29.4345 44.9901 29.6361C45.0909 30.7449 46.0541 31.1369 47.1293 31.1369C48.2157 31.1369 49.1677 30.7449 49.2685 29.6361C49.2909 29.4345 49.2909 29.3449 49.2909 29.2329V27.5977L47.1405 27.6089Z" fill="white"/>
</g>
<defs>
<clipPath id="clip0_922_3728">
<rect width="56" height="56" rx="4" fill="white"/>
</clipPath>
</defs>
</svg>
