<svg width="32" height="29" viewBox="0 0 32 29" fill="none" xmlns="http://www.w3.org/2000/svg">
<path d="M3.9987 6.0013C5.47146 6.0013 6.66536 4.80739 6.66536 3.33464C6.66536 1.86188 5.47146 0.667969 3.9987 0.667969C2.52594 0.667969 1.33203 1.86188 1.33203 3.33464C1.33203 4.80739 2.52594 6.0013 3.9987 6.0013Z" fill="#18B36A"/>
<path d="M2.69401 16.681H0.0273438V10.0143C0.0273438 9.30708 0.308334 8.6288 0.808431 8.1287C1.30853 7.62861 1.98677 7.34766 2.69401 7.34766H7.24064L12.974 13.0676L11.054 15.001L6.10734 10.0676H2.69401V16.681Z" fill="#18B36A"/>
<path d="M7.9987 24.6667H5.33203V16.6667H3.9987V24.6667H1.33203V14H7.9987V24.6667Z" fill="#18B36A"/>
<path d="M7.9987 8.66797H1.33203V16.668H7.9987V8.66797Z" fill="#18B36A"/>
<path d="M13.3333 28.668H0V26.0013H10.6667V20.668H14.6667V15.3346H20V10.0013H25.3333V4.66797H32V7.33464H28V12.668H22.6667V18.0013H17.3333V23.3346H13.3333V28.668Z" fill="#07133B"/>
<path d="M28.7707 15.3132L17.457 26.627L19.3426 28.5126L30.6564 17.1989L28.7707 15.3132Z" fill="#07133B"/>
<path d="M30.6667 21.0026V15.3359H25L30.6667 21.0026Z" fill="#07133B"/>
</svg>
