<svg width="40" height="40" viewBox="0 0 40 40" fill="none" xmlns="http://www.w3.org/2000/svg">
<path d="M34 0H6C2.685 0 0 2.685 0 6V34C0 37.315 2.685 40 6 40H34C37.315 40 40 37.315 40 34V6C40 2.685 37.315 0 34 0Z" fill="#FF6900"/>
<path d="M24.3532 17.2849V25.7789C24.3532 25.9866 24.1831 26.1566 23.9751 26.1566H20.9504C20.7425 26.1566 20.5723 25.9866 20.5723 25.7789V17.2849C20.5723 16.2415 19.7264 15.3963 18.6819 15.3963H11.3234C11.2194 15.3963 11.1344 15.4813 11.1344 15.5852V25.7789C11.1344 25.9866 10.9642 26.1566 10.7563 26.1566H7.7316C7.52365 26.1566 7.35352 25.9866 7.35352 25.7789V11.9969C7.35352 11.7891 7.52365 11.6191 7.7316 11.6191H18.6819C21.8153 11.6191 24.3532 14.1546 24.3532 17.2849ZM17.3681 17.2849H14.3434C14.1354 17.2849 13.9653 17.4549 13.9653 17.6627V25.7789C13.9653 25.9866 14.1354 26.1566 14.3434 26.1566H17.3681C17.576 26.1566 17.7461 25.9866 17.7461 25.7789V17.6627C17.7461 17.4549 17.576 17.2849 17.3681 17.2849ZM30.0765 11.6191H27.0518C26.8438 11.6191 26.6737 11.7891 26.6737 11.9969V25.7789C26.6737 25.9866 26.8438 26.1566 27.0518 26.1566H30.0765C30.2844 26.1566 30.4546 25.9866 30.4546 25.7789V11.9969C30.4546 11.7891 30.2844 11.6191 30.0765 11.6191Z" fill="white"/>
</svg>
